<svg width="121" height="36" viewBox="0 0 121 36" fill="none" xmlns="http://www.w3.org/2000/svg">
<path d="M19.6946 16.2009C19.2582 15.9281 18.6059 15.5949 17.6948 15.3059C17.1392 15.1294 16.4875 14.9693 15.73 14.8493C13.8967 14.5584 12.1525 13.7306 10.9304 13.0264C9.87694 12.4194 9.21157 11.9043 9.21157 11.9043C9.21157 11.9043 8.90475 12.2692 8.63057 13.0264C8.46261 13.4903 8.30666 14.1015 8.24123 14.8663C8.24123 14.8663 3.4962 14.815 3.4962 10.5164C3.4962 10.5164 5.31018 10.5829 6.01573 9.69617C6.02266 9.68763 6.02928 9.67895 6.0359 9.67028C6.0359 9.67028 6.02897 9.66689 6.01573 9.65984C5.85686 9.57554 4.77706 8.97 3.5741 7.46943C3.5741 7.46943 2.51631 5.3404 0.813779 4.04122C0.556837 3.84497 0.284961 3.6677 0 3.51957V23.5583H6.5621V18.7831H10.4738C14.5073 18.7831 17.581 18.1456 19.6946 16.8701C19.8587 16.7711 20.017 16.6682 20.1696 16.5615L20.188 16.5478C20.0726 16.4553 19.9098 16.3353 19.6946 16.2009ZM15.5985 0.560289H15.5983C14.0956 0.266598 12.3594 0.11982 10.3898 0.11982H0V2.73323C0.267103 2.51421 0.538671 2.33884 0.813779 2.20277C3.12241 1.06026 5.66765 2.68945 7.74474 4.54579C8.79114 5.48094 9.71884 6.47383 10.4376 7.19918C10.4376 7.19918 11.9075 6.7766 13.4141 6.91172C14.0596 6.96945 14.7119 7.12966 15.2583 7.46943C15.2583 7.46943 13.9153 8.09557 13.4945 8.80682C13.4945 8.80682 16.2894 9.87479 18.616 11.3525C18.9925 11.5915 19.3565 11.8413 19.6946 12.099V2.05287C18.6093 1.37929 17.2439 0.881764 15.5985 0.560289Z" fill="white"/>
<path d="M58.998 23.7459V0H64.2V23.7459H58.998Z" fill="white"/>
<path d="M52.7179 0.000160217V13.1961L43.3158 0.000160217H38.1138V17.3685H43.3158V8.65044L52.7179 21.8123V23.7459H57.9199V0.000160217H52.7179ZM24.8969 19.1664V15.3331H32.3338V10.7536H24.8969V4.61357H36.3028V0.000160217H19.6948V2.05288C19.8905 2.17418 20.0769 2.30131 20.2543 2.43399C22.3149 3.97726 23.3459 6.34725 23.3459 9.54439C23.3459 11.8602 22.7884 13.7241 21.6771 15.1398C21.8366 14.1116 20.9437 13.0512 19.6948 12.099V23.7459H48.749V19.1325L24.8969 19.1664Z" fill="white"/>
<path d="M81.9633 23.7459H65.3169V0H81.9248V4.61355H70.519V10.7536H77.956V15.3331H70.519V19.1664H81.9635L81.9633 23.7459Z" fill="white"/>
<path d="M98.4173 19.1664V23.7459H88.7839C85.6242 23.7459 83.0425 21.4731 83.0425 18.6915V0H88.2444V18.6914C88.2444 18.9627 88.4757 19.1663 88.7839 19.1663H98.4173V19.1664Z" fill="white"/>
<path d="M0.798685 33.0029C0.740019 33.0027 0.692074 32.9839 0.654851 32.9464C0.617628 32.9089 0.599103 32.8608 0.599276 32.8022L0.614619 27.6022C0.614792 27.5435 0.6336 27.4956 0.671043 27.4584C0.708487 27.4212 0.756541 27.4027 0.815208 27.4029L4.38318 27.4162C4.44185 27.4164 4.48979 27.4353 4.52702 27.4728C4.56424 27.5102 4.58276 27.5583 4.58259 27.617L4.58059 28.297C4.58041 28.3556 4.5616 28.4036 4.52416 28.4408C4.48672 28.4779 4.43866 28.4964 4.38 28.4962L1.86001 28.4868L1.85602 29.8388L4.21601 29.8476C4.27467 29.8478 4.32262 29.8667 4.35984 29.9041C4.39707 29.9416 4.41559 29.9897 4.41542 30.0484L4.41341 30.7284C4.41325 30.7817 4.39445 30.827 4.35701 30.8641C4.31957 30.9013 4.27151 30.9198 4.21285 30.9196L1.85286 30.9108L1.84727 32.8068C1.84709 32.8655 1.82829 32.9134 1.79084 32.9506C1.7534 32.9878 1.70535 33.0063 1.64668 33.0061L0.798685 33.0029ZM4.82534 33.0179C4.77734 33.0177 4.73739 33.0016 4.70549 32.9695C4.6736 32.932 4.65772 32.8919 4.65784 32.8493C4.65792 32.8226 4.66066 32.7986 4.66605 32.7773L6.58522 27.6404C6.60139 27.5818 6.63354 27.5313 6.68167 27.4888C6.72979 27.4463 6.79652 27.4252 6.88185 27.4255L7.90585 27.4293C7.99118 27.4296 8.05778 27.4512 8.10566 27.4941C8.15353 27.5369 8.18538 27.5877 8.20121 27.6464L10.09 32.7975C10.0953 32.8188 10.0979 32.8429 10.0978 32.8695C10.0977 32.9122 10.0816 32.9521 10.0495 32.9893C10.0174 33.0212 9.97731 33.0371 9.92931 33.0369L9.09732 33.0338C9.01732 33.0335 8.9587 33.0146 8.92148 32.9771C8.88426 32.9397 8.86036 32.9049 8.84979 32.8729L8.50844 31.9756L6.25245 31.9672L5.90581 32.8619C5.89505 32.8939 5.87095 32.9285 5.8335 32.9657C5.79606 33.0028 5.73734 33.0213 5.65734 33.021L4.82534 33.0179ZM6.55149 30.9363L8.20748 30.9425L7.39029 28.6354L6.55149 30.9363ZM12.8927 33.1279C12.3913 33.1261 11.9649 33.0418 11.6134 32.8752C11.2673 32.7032 10.9987 32.4569 10.8076 32.1362C10.6166 31.8101 10.5111 31.4151 10.4911 30.951C10.4864 30.7323 10.4844 30.4976 10.4852 30.2469C10.4859 29.9963 10.4893 29.7563 10.4953 29.527C10.518 29.0684 10.6258 28.6795 10.8187 28.3602C11.017 28.0356 11.2924 27.7886 11.6449 27.6192C11.9974 27.4499 12.419 27.3661 12.9097 27.368C13.267 27.3693 13.5922 27.4158 13.8853 27.5076C14.1783 27.5993 14.4313 27.731 14.6441 27.9024C14.8569 28.0739 15.0217 28.2745 15.1383 28.5043C15.255 28.734 15.3182 28.9903 15.3281 29.273C15.3279 29.321 15.3091 29.3609 15.2717 29.3928C15.2396 29.4246 15.1996 29.4405 15.1516 29.4403L14.2396 29.4369C14.1756 29.4367 14.125 29.4205 14.0877 29.3884C14.0505 29.3562 14.0213 29.3028 14.0002 29.228C13.9211 28.9131 13.7884 28.6966 13.6021 28.5785C13.4158 28.4605 13.184 28.401 12.9066 28.3999C12.576 28.3987 12.3144 28.4884 12.1218 28.669C11.9293 28.8496 11.8244 29.1506 11.8072 29.5719C11.7899 30.0091 11.7886 30.4571 11.8032 30.9159C11.818 31.3372 11.9211 31.639 12.1125 31.821C12.304 32.0031 12.5651 32.0947 12.8957 32.0959C13.1731 32.097 13.4052 32.0392 13.5922 31.9225C13.7846 31.8006 13.9186 31.5851 13.9941 31.276C14.0157 31.1961 14.0452 31.1429 14.0826 31.1163C14.12 31.0845 14.1708 31.0687 14.2348 31.0689L15.1468 31.0723C15.1948 31.0725 15.2347 31.0886 15.2666 31.1207C15.3038 31.1529 15.3224 31.193 15.3223 31.241C15.3108 31.5236 15.246 31.7793 15.128 32.0082C15.01 32.2371 14.8441 32.4365 14.6302 32.6064C14.4164 32.7763 14.1627 32.906 13.8691 32.9956C13.5755 33.0851 13.25 33.1293 12.8927 33.1279ZM16.4158 33.061C16.3571 33.0608 16.3092 33.042 16.2719 33.0045C16.2347 32.967 16.2162 32.919 16.2164 32.8603L16.2317 27.6603C16.2319 27.6017 16.2507 27.5537 16.2881 27.5165C16.3256 27.4793 16.3736 27.4608 16.4323 27.4611L20.0563 27.4746C20.1149 27.4748 20.1629 27.4936 20.2001 27.5311C20.2373 27.5686 20.2558 27.6166 20.2557 27.6753L20.2538 28.3153C20.2536 28.3686 20.2348 28.4139 20.1974 28.4511C20.1599 28.4883 20.1119 28.5068 20.0532 28.5065L17.4612 28.4969L17.4575 29.7529L19.8735 29.7619C19.9322 29.7621 19.9801 29.7809 20.0173 29.8184C20.0546 29.8559 20.0731 29.904 20.0729 29.9626L20.0712 30.5546C20.071 30.608 20.0522 30.6532 20.0148 30.6904C19.9773 30.7276 19.9293 30.7461 19.8706 30.7459L17.4546 30.7369L17.4508 32.0329L20.1068 32.0428C20.1655 32.043 20.2134 32.0618 20.2506 32.0993C20.2878 32.1368 20.3064 32.1848 20.3062 32.2435L20.3043 32.8755C20.3042 32.9342 20.2853 32.9821 20.2479 33.0193C20.2105 33.0565 20.1624 33.075 20.1037 33.0748L16.4158 33.061ZM22.4893 33.0836C22.4413 33.0835 22.4013 33.0673 22.3694 33.0352C22.3375 32.9977 22.3217 32.9577 22.3218 32.915C22.3219 32.8884 22.3246 32.8644 22.33 32.843L24.2492 27.7062C24.2653 27.6476 24.2975 27.597 24.3456 27.5545C24.3937 27.512 24.4605 27.4909 24.5458 27.4913L25.5698 27.4951C25.6551 27.4954 25.7217 27.517 25.7696 27.5598C25.8175 27.6027 25.8493 27.6534 25.8651 27.7122L27.754 32.8632C27.7592 32.8846 27.7618 32.9086 27.7617 32.9353C27.7616 32.9779 27.7455 33.0179 27.7134 33.0551C27.6813 33.087 27.6412 33.1028 27.5932 33.1026L26.7613 33.0995C26.6813 33.0992 26.6226 33.0804 26.5854 33.0429C26.5482 33.0054 26.5243 32.9707 26.5137 32.9386L26.1724 32.0413L23.9164 32.0329L23.5697 32.9277C23.559 32.9596 23.5349 32.9942 23.4974 33.0314C23.46 33.0686 23.4013 33.087 23.3213 33.0867L22.4893 33.0836ZM24.2154 31.0021L25.8714 31.0082L25.0542 28.7012L24.2154 31.0021ZM30.2125 33.1124C30.1539 33.1122 30.1059 33.0933 30.0687 33.0559C30.0315 33.0184 30.013 32.9703 30.0131 32.9116L30.0285 27.7117C30.0287 27.653 30.0475 27.6051 30.0849 27.5679C30.1223 27.5307 30.1704 27.5122 30.2291 27.5124L33.797 27.5257C33.8557 27.5259 33.9037 27.5448 33.9409 27.5822C33.9781 27.6197 33.9966 27.6678 33.9965 27.7264L33.9944 28.4064C33.9943 28.4651 33.9755 28.513 33.938 28.5502C33.9006 28.5874 33.8525 28.6059 33.7939 28.6057L31.2739 28.5963L31.2699 29.9483L33.6299 29.9571C33.6885 29.9573 33.7365 29.9761 33.7737 30.0136C33.8109 30.0511 33.8294 30.0992 33.8293 30.1578L33.8273 30.8378C33.8271 30.8912 33.8083 30.9364 33.7709 30.9736C33.7334 31.0108 33.6854 31.0293 33.6267 31.0291L31.2667 31.0203L31.2611 32.9163C31.261 32.975 31.2421 33.0229 31.2047 33.0601C31.1673 33.0973 31.1192 33.1158 31.0605 33.1155L30.2125 33.1124ZM34.2392 33.1274C34.1912 33.1272 34.1513 33.111 34.1193 33.0789C34.0875 33.0415 34.0716 33.0014 34.0717 32.9587C34.0718 32.9321 34.0745 32.9081 34.0799 32.8868L35.9991 27.7499C36.0153 27.6913 36.0474 27.6407 36.0955 27.5982C36.1437 27.5558 36.2104 27.5347 36.2957 27.535L37.3197 27.5388C37.405 27.5391 37.4716 27.5607 37.5195 27.6035C37.5674 27.6464 37.5992 27.6972 37.6151 27.7559L39.5039 32.907C39.5091 32.9283 39.5117 32.9523 39.5117 32.979C39.5115 33.0217 39.4954 33.0616 39.4633 33.0988C39.4312 33.1307 39.3912 33.1465 39.3432 33.1464L38.5112 33.1433C38.4312 33.143 38.3726 33.1241 38.3353 33.0866C38.2981 33.0491 38.2742 33.0144 38.2636 32.9824L37.9223 32.0851L35.6663 32.0767L35.3197 32.9714C35.3089 33.0034 35.2848 33.0379 35.2474 33.0751C35.2099 33.1123 35.1512 33.1308 35.0712 33.1305L34.2392 33.1274ZM35.9654 31.0458L37.6213 31.0519L36.8041 28.7449L35.9654 31.0458ZM42.3065 33.2374C41.8052 33.2355 41.3788 33.1513 41.0273 32.9846C40.6811 32.8127 40.4125 32.5663 40.2215 32.2456C40.0304 31.9196 39.9249 31.5245 39.905 31.0604C39.9003 30.8418 39.8983 30.6071 39.899 30.3564C39.8998 30.1058 39.9031 29.8658 39.9092 29.6365C39.9318 29.1779 40.0397 28.7889 40.2326 28.4696C40.4309 28.1451 40.7063 27.8981 41.0588 27.7287C41.4113 27.5594 41.8329 27.4756 42.3235 27.4774C42.6809 27.4788 43.0061 27.5253 43.2991 27.6171C43.5922 27.7088 43.8451 27.8404 44.058 28.0119C44.2708 28.1833 44.4355 28.384 44.5522 28.6137C44.6688 28.8435 44.7321 29.0997 44.7419 29.3824C44.7418 29.4304 44.723 29.4704 44.6856 29.5022C44.6535 29.5341 44.6134 29.55 44.5654 29.5498L43.6534 29.5464C43.5894 29.5461 43.5388 29.53 43.5016 29.4978C43.4643 29.4657 43.4352 29.4122 43.414 29.3375C43.335 29.0225 43.2023 28.806 43.016 28.688C42.8296 28.57 42.5978 28.5105 42.3205 28.5094C41.9898 28.5082 41.7282 28.5979 41.5357 28.7785C41.3432 28.9591 41.2383 29.2601 41.221 29.6813C41.2037 30.1186 41.2024 30.5666 41.2171 31.0253C41.2318 31.4467 41.3349 31.7484 41.5264 31.9305C41.7179 32.1125 41.9789 32.2042 42.3096 32.2054C42.5869 32.2064 42.8191 32.1486 43.0061 32.032C43.1985 31.91 43.3324 31.6945 43.408 31.3855C43.4296 31.3056 43.4591 31.2523 43.4965 31.2258C43.5339 31.194 43.5846 31.1781 43.6486 31.1784L44.5606 31.1818C44.6086 31.182 44.6486 31.1981 44.6805 31.2302C44.7177 31.2624 44.7363 31.3024 44.7361 31.3504C44.7246 31.6331 44.6599 31.8888 44.5418 32.1177C44.4238 32.3466 44.2579 32.546 44.0441 32.7159C43.8302 32.8857 43.5765 33.0155 43.2829 33.105C42.9893 33.1946 42.6639 33.2387 42.3065 33.2374ZM45.8296 33.1705C45.771 33.1703 45.723 33.1514 45.6858 33.114C45.6486 33.0765 45.63 33.0284 45.6302 32.9698L45.6456 27.7698C45.6457 27.7111 45.6645 27.6632 45.702 27.626C45.7394 27.5888 45.7875 27.5703 45.8461 27.5705L49.4701 27.584C49.5288 27.5842 49.5767 27.6031 49.614 27.6406C49.6512 27.678 49.6697 27.7261 49.6695 27.7848L49.6676 28.4248C49.6675 28.4781 49.6487 28.5234 49.6112 28.5606C49.5738 28.5977 49.5257 28.6162 49.4671 28.616L46.8751 28.6064L46.8714 29.8624L49.2874 29.8714C49.346 29.8716 49.394 29.8904 49.4312 29.9279C49.4684 29.9654 49.487 30.0134 49.4868 30.0721L49.485 30.6641C49.4849 30.7174 49.4661 30.7627 49.4286 30.7999C49.3912 30.8371 49.3431 30.8556 49.2845 30.8554L46.8685 30.8464L46.8647 32.1424L49.5206 32.1522C49.5793 32.1525 49.6273 32.1713 49.6645 32.2088C49.7017 32.2462 49.7202 32.2943 49.7201 32.353L49.7182 32.985C49.718 33.0436 49.6992 33.0916 49.6618 33.1288C49.6243 33.166 49.5763 33.1845 49.5176 33.1842L45.8296 33.1705ZM54.658 33.2834C54.1567 33.2815 53.7303 33.1972 53.3788 33.0306C53.0326 32.8586 52.764 32.6123 52.5729 32.2916C52.3819 31.9656 52.2764 31.5705 52.2564 31.1064C52.2517 30.8877 52.2498 30.6531 52.2505 30.4024C52.2512 30.1517 52.2546 29.9117 52.2606 29.6824C52.2833 29.2238 52.3911 28.8349 52.5841 28.5156C52.7824 28.191 53.0578 27.944 53.4103 27.7747C53.7628 27.6053 54.1843 27.5216 54.675 27.5234C55.0323 27.5247 55.3575 27.5713 55.6506 27.663C55.9437 27.7548 56.1966 27.8864 56.4094 28.0579C56.6223 28.2293 56.787 28.4299 56.9037 28.6597C57.0203 28.8895 57.0836 29.1457 57.0934 29.4284C57.0933 29.4764 57.0745 29.5163 57.037 29.5482C57.005 29.5801 56.9649 29.5959 56.9169 29.5957L56.0049 29.5924C55.9409 29.5921 55.8903 29.5759 55.8531 29.5438C55.8158 29.5117 55.7866 29.4582 55.7655 29.3835C55.6865 29.0685 55.5538 28.852 55.3674 28.734C55.1811 28.6159 54.9493 28.5564 54.672 28.5554C54.3413 28.5542 54.0797 28.6439 53.8872 28.8245C53.6946 29.0051 53.5897 29.306 53.5725 29.7273C53.5552 30.1646 53.5539 30.6126 53.5685 31.0713C53.5833 31.4927 53.6864 31.7944 53.8779 31.9765C54.0693 32.1585 54.3304 32.2501 54.6611 32.2514C54.9384 32.2524 55.1706 32.1946 55.3576 32.078C55.5499 31.956 55.6839 31.7405 55.7595 31.4315C55.7811 31.3515 55.8105 31.2983 55.848 31.2718C55.8854 31.2399 55.9361 31.2241 56.0001 31.2243L56.9121 31.2277C56.9601 31.2279 57 31.2441 57.0319 31.2762C57.0692 31.3083 57.0877 31.3484 57.0876 31.3964C57.0761 31.679 57.0113 31.9348 56.8933 32.1637C56.7753 32.3926 56.6094 32.592 56.3956 32.7618C56.1817 32.9317 55.928 33.0614 55.6344 33.151C55.3408 33.2406 55.0153 33.2847 54.658 33.2834ZM60.2049 33.304C59.7195 33.3022 59.3011 33.2206 58.9496 33.0593C58.598 32.898 58.3241 32.657 58.1277 32.3363C57.9313 32.0102 57.8259 31.6018 57.8113 31.1111C57.8067 30.8817 57.8047 30.6551 57.8053 30.4311C57.806 30.2017 57.8093 29.9697 57.8154 29.7351C57.8328 29.2552 57.9406 28.8529 58.1389 28.5283C58.3426 28.1984 58.6206 27.9514 58.9731 27.7874C59.3309 27.6234 59.7472 27.5423 60.2218 27.544C60.6912 27.5458 61.1016 27.63 61.4531 27.7966C61.8099 27.9633 62.0892 28.2123 62.2909 28.5437C62.4926 28.8698 62.5981 29.2729 62.6073 29.7529C62.6173 29.9876 62.622 30.2197 62.6213 30.449C62.6206 30.673 62.6146 30.8996 62.6033 31.1289C62.5858 31.6195 62.478 32.0271 62.2797 32.3517C62.0814 32.671 61.806 32.91 61.4536 33.0687C61.1011 33.2273 60.6848 33.3058 60.2049 33.304ZM60.2079 32.272C60.5172 32.2732 60.7708 32.1808 60.9687 31.9948C61.1719 31.8036 61.2795 31.5 61.2914 31.084C61.3028 30.8494 61.3087 30.6308 61.3093 30.4281C61.31 30.2201 61.3053 30.0014 61.2953 29.772C61.2908 29.4947 61.2408 29.2678 61.1453 29.0915C61.0498 28.9151 60.9222 28.7867 60.7624 28.7061C60.608 28.6201 60.4268 28.5768 60.2188 28.576C60.0108 28.5753 59.8267 28.6172 59.6664 28.702C59.5062 28.7814 59.3778 28.9089 59.2813 29.0845C59.1901 29.2602 59.1388 29.4867 59.1273 29.764C59.1213 29.9933 59.118 30.2119 59.1174 30.4199C59.1168 30.6226 59.1188 30.8413 59.1234 31.076C59.1382 31.492 59.244 31.7964 59.4407 31.9892C59.6375 32.1766 59.8932 32.2708 60.2079 32.272ZM63.8061 33.2374C63.7527 33.2372 63.7048 33.2184 63.6622 33.1809C63.625 33.1434 63.6065 33.0953 63.6067 33.0367L63.622 27.8367C63.6222 27.778 63.641 27.7301 63.6784 27.6929C63.7212 27.6557 63.7693 27.6372 63.8226 27.6374L64.5666 27.6402C64.6466 27.6405 64.7052 27.6621 64.7424 27.7049C64.7849 27.7477 64.8142 27.7798 64.8301 27.8012L66.2941 30.5187L67.7901 27.8122C67.8008 27.7909 67.8249 27.759 67.8624 27.7165C67.9052 27.674 67.9666 27.6529 68.0466 27.6532L68.7906 27.6559C68.8492 27.6561 68.8972 27.675 68.9344 27.7125C68.9716 27.7499 68.9901 27.798 68.99 27.8567L68.9746 33.0566C68.9744 33.1153 68.9556 33.1632 68.9182 33.2004C68.8807 33.2376 68.8327 33.2561 68.774 33.2559L67.958 33.2529C67.9047 33.2527 67.8594 33.2338 67.8222 33.1964C67.785 33.1589 67.7665 33.1108 67.7666 33.0522L67.7762 29.8202L66.7545 31.7204C66.7277 31.7683 66.6929 31.8108 66.6502 31.848C66.6074 31.8852 66.5513 31.9036 66.482 31.9034L66.106 31.902C66.0367 31.9017 65.9807 31.8828 65.9382 31.8453C65.8956 31.8078 65.8611 31.7651 65.8346 31.717L64.8242 29.8092L64.8146 33.0412C64.8145 33.0998 64.7957 33.1478 64.7582 33.185C64.7208 33.2222 64.6754 33.2406 64.6221 33.2405L63.8061 33.2374ZM72.1263 33.2684C72.0677 33.2682 72.0197 33.2493 71.9825 33.2118C71.9453 33.1744 71.9267 33.1263 71.9269 33.0676L71.9423 27.8677C71.9424 27.809 71.9612 27.7611 71.9987 27.7239C72.0361 27.6867 72.0842 27.6682 72.1428 27.6684L74.1508 27.6759C74.6842 27.6779 75.1292 27.7649 75.4861 27.9368C75.8429 28.1035 76.1142 28.3499 76.2999 28.6759C76.4909 28.9966 76.5911 29.3943 76.6004 29.869C76.605 30.1037 76.6071 30.309 76.6065 30.485C76.606 30.661 76.6028 30.8637 76.5968 31.093C76.5793 31.5889 76.4794 31.9992 76.2971 32.3239C76.1148 32.6486 75.8474 32.8902 75.495 33.0489C75.1425 33.2023 74.7023 33.278 74.1743 33.276L72.1263 33.2684ZM73.2014 32.2404L74.1373 32.2439C74.404 32.2448 74.6228 32.2057 74.7937 32.1263C74.9646 32.0469 75.0903 31.9221 75.1708 31.7517C75.2567 31.576 75.3027 31.3495 75.3088 31.0722C75.3146 30.9176 75.3177 30.7789 75.318 30.6562C75.3237 30.5336 75.3241 30.4109 75.3191 30.2882C75.3195 30.1656 75.3172 30.0296 75.3123 29.8802C75.3028 29.4802 75.1997 29.1865 75.0029 28.9991C74.8115 28.8063 74.5131 28.7092 74.1078 28.7077L73.2118 28.7044L73.2014 32.2404ZM77.7982 33.2895C77.7395 33.2893 77.6915 33.2704 77.6543 33.233C77.6171 33.1955 77.5986 33.1474 77.5987 33.0887L77.6141 27.8888C77.6143 27.8301 77.6331 27.7822 77.6705 27.745C77.708 27.7078 77.756 27.6893 77.8147 27.6895L81.4387 27.703C81.4973 27.7032 81.5453 27.7221 81.5825 27.7595C81.6197 27.797 81.6382 27.8451 81.6381 27.9037L81.6362 28.5437C81.636 28.5971 81.6172 28.6423 81.5798 28.6795C81.5423 28.7167 81.4943 28.7352 81.4356 28.735L78.8436 28.7253L78.8399 29.9813L81.2559 29.9903C81.3146 29.9906 81.3625 30.0094 81.3997 30.0469C81.437 30.0843 81.4555 30.1324 81.4553 30.1911L81.4536 30.7831C81.4534 30.8364 81.4346 30.8817 81.3972 30.9189C81.3597 30.9561 81.3117 30.9745 81.253 30.9743L78.837 30.9653L78.8332 32.2613L81.4892 32.2712C81.5478 32.2714 81.5958 32.2903 81.633 32.3278C81.6702 32.3652 81.6888 32.4133 81.6886 32.472L81.6867 33.104C81.6865 33.1626 81.6677 33.2106 81.6303 33.2477C81.5928 33.2849 81.5448 33.3034 81.4861 33.3032L77.7982 33.2895ZM84.9249 33.396C84.4556 33.3943 84.0452 33.3154 83.6936 33.1594C83.3421 32.9981 83.0708 32.7544 82.8798 32.4284C82.6888 32.097 82.594 31.678 82.5955 31.1713L82.6051 27.9073C82.6053 27.8487 82.6241 27.8007 82.6615 27.7636C82.699 27.7264 82.747 27.7079 82.8057 27.7081L83.6777 27.7113C83.7364 27.7116 83.7843 27.7304 83.8215 27.7679C83.8588 27.8053 83.8773 27.8534 83.8771 27.9121L83.8675 31.1681C83.8663 31.5627 83.9588 31.8564 84.1449 32.0491C84.331 32.2418 84.592 32.3388 84.928 32.34C85.2587 32.3412 85.5177 32.2462 85.7049 32.0549C85.8921 31.8636 85.9863 31.5706 85.9875 31.176L85.9971 27.92C85.9973 27.8613 86.0161 27.8134 86.0535 27.7762C86.0963 27.739 86.1443 27.7205 86.1977 27.7207L87.0777 27.724C87.131 27.7242 87.1763 27.743 87.2135 27.7805C87.2507 27.818 87.2693 27.866 87.2691 27.9247L87.2595 31.1887C87.258 31.6954 87.1607 32.1137 86.9677 32.4436C86.7748 32.7682 86.5047 33.0099 86.1576 33.1686C85.8105 33.322 85.3996 33.3978 84.9249 33.396ZM90.4029 33.4164C89.8909 33.4145 89.4618 33.3382 89.1156 33.1876C88.7747 33.037 88.5166 32.8414 88.3413 32.6007C88.166 32.3601 88.0734 32.1037 88.0636 31.8317C88.0637 31.789 88.0798 31.7517 88.1119 31.7199C88.144 31.6826 88.1841 31.6641 88.2321 31.6643L89.088 31.6675C89.1574 31.6678 89.2107 31.684 89.2479 31.7161C89.2852 31.7429 89.3197 31.7777 89.3516 31.8205C89.3887 31.9113 89.4471 31.9995 89.5268 32.0851C89.6119 32.1708 89.7264 32.2432 89.8702 32.3024C90.014 32.3563 90.1926 32.3836 90.4059 32.3844C90.7526 32.3857 91.0114 32.3307 91.1824 32.2193C91.3588 32.1079 91.4472 31.9563 91.4478 31.7643C91.4482 31.6256 91.4005 31.5134 91.3048 31.4277C91.2143 31.3421 91.0679 31.2642 90.8655 31.1941C90.6683 31.124 90.4045 31.0484 90.0741 30.9672C89.6744 30.8803 89.3334 30.7697 89.0511 30.6354C88.7742 30.4957 88.564 30.3189 88.4207 30.105C88.2826 29.8858 88.2141 29.6162 88.215 29.2962C88.216 28.9762 88.3048 28.6939 88.4815 28.4492C88.6583 28.1992 88.9069 28.0055 89.2273 27.868C89.5477 27.7252 89.9292 27.6546 90.3719 27.6562C90.7292 27.6576 91.0437 27.7067 91.3155 27.8038C91.5925 27.9008 91.8215 28.027 92.0023 28.1823C92.1886 28.3377 92.3294 28.5035 92.4249 28.6799C92.5204 28.8563 92.5705 29.0271 92.5754 29.1925C92.5752 29.2351 92.5591 29.2751 92.527 29.3123C92.4949 29.3442 92.4549 29.36 92.4069 29.3598L91.5109 29.3565C91.4575 29.3563 91.4096 29.3455 91.367 29.324C91.3244 29.3025 91.2898 29.265 91.2633 29.2116C91.2317 29.0728 91.1361 28.9524 90.9764 28.8505C90.822 28.7433 90.6195 28.6892 90.3688 28.6882C90.1075 28.6873 89.8994 28.7345 89.7444 28.8299C89.5948 28.9254 89.5197 29.0718 89.5191 29.2691C89.5187 29.3971 89.5558 29.5066 89.6302 29.5975C89.7099 29.6831 89.8403 29.7609 90.0215 29.831C90.2079 29.8957 90.4531 29.9686 90.7568 30.0497C91.2259 30.1474 91.6069 30.2635 91.8998 30.398C92.1927 30.5324 92.4082 30.7065 92.5463 30.9204C92.6843 31.1289 92.7529 31.3931 92.7519 31.7131C92.7509 32.0705 92.6486 32.3768 92.4452 32.632C92.2471 32.8873 91.9719 33.0836 91.6195 33.2209C91.2724 33.353 90.8669 33.4181 90.4029 33.4164Z" fill="white"/>
</svg>
